<svg viewBox="0 0 1123 794" fill="none" xmlns="http://www.w3.org/2000/svg">
<path d="M990.568 295.305L908.925 141.556H878.285L967.201 307.372V435.939H995.437V305.932L990.568 295.305ZM810.401 276.732C841.041 268.921 863.871 244.891 863.871 212.448C863.871 160.18 817.011 141.556 771.951 141.556H696.853V435.939H792.377C842.844 435.939 893.309 412.509 893.309 355.435C893.309 306.171 856.061 280.937 810.401 276.732ZM767.745 276.131H724.489V146.362H768.947C809.8 146.362 833.832 172.196 833.832 212.448C833.832 253.302 807.999 276.131 767.745 276.131ZM860.867 355.435C860.867 401.695 833.832 431.133 786.971 431.133H724.489V280.937H784.568C831.429 280.937 860.867 307.973 860.867 355.435ZM657.809 335.608V141.556H653.604V335.008C653.604 390.88 628.972 428.729 569.495 428.729C513.021 428.729 487.188 383.671 487.188 332.004V141.556H458.951V334.407C458.951 401.695 496.199 438.943 563.487 438.943C630.173 438.943 657.809 398.691 657.809 335.608ZM425.311 231.072C425.311 166.188 367.635 141.556 311.161 141.556H231.857V435.339L260.696 435.939L260.095 319.988H303.352C410.291 319.988 397.675 518.247 528.645 518.247C567.096 518.247 595.332 510.436 627.775 490.009L624.771 485.204C601.34 500.223 578.511 505.629 550.875 505.629C437.327 505.629 411.492 342.818 328.584 319.388C377.849 316.984 425.311 284.542 425.311 231.072ZM394.671 231.072C394.671 282.74 360.425 315.783 309.359 315.783H260.095V146.963H309.359C361.628 146.963 394.671 178.203 394.671 231.072Z" fill="#231F20"/>
<path d="M158.372 209.355C177.295 202.839 187.352 182.217 180.836 163.295C174.321 144.372 153.699 134.315 134.776 140.831C115.854 147.345 105.796 167.968 112.312 186.891C118.827 205.812 139.449 215.871 158.372 209.355Z" stroke="#231F20" stroke-width="3.25"/>
<path d="M118.126 208.403L118.147 209.607L132.692 209.352L132.695 208.713L131.266 208.173C130.396 208.188 129.656 207.9 129.044 207.309C128.431 206.717 128.118 206.02 128.104 205.219L127.575 174.925L166.293 174.251L166.823 204.543C166.836 205.345 166.548 206.052 165.956 206.664C165.365 207.277 164.633 207.591 163.765 207.605L162.361 207.631L161.411 209.225L176.927 208.58L176.905 207.376C175.968 207.393 175.096 207.192 174.285 206.769C173.476 206.349 173.06 205.537 173.04 204.333L172.013 145.555C171.989 144.151 172.325 143.292 173.021 142.979C173.719 142.665 174.635 142.499 175.772 142.479L175.749 141.175L161.908 141.416L162.559 142.319C163.427 142.304 163.62 142.791 164.396 143.179C165.172 143.567 165.635 144.261 165.788 145.261L166.269 172.845L127.551 173.521L127.069 145.937C127.185 144.932 127.624 144.223 128.387 143.808C129.148 143.393 128.395 143.277 129.265 143.261L130.813 141.959L116.971 142.201L116.993 143.505C118.13 143.485 119.052 143.619 119.76 143.908C120.467 144.196 120.833 145.043 120.858 146.447L121.884 205.227C121.905 206.431 121.518 207.257 120.723 207.705C119.928 208.155 119.062 208.387 118.126 208.403Z" fill="#231F20"/>
<path d="M118.126 208.403L118.147 209.607L132.692 209.352L132.695 208.713L131.266 208.173C130.396 208.188 129.656 207.9 129.044 207.309C128.431 206.717 128.118 206.02 128.104 205.219L127.575 174.925L166.293 174.251L166.823 204.543C166.836 205.345 166.548 206.052 165.956 206.664C165.365 207.277 164.633 207.591 163.765 207.605L162.361 207.631L161.411 209.225L176.927 208.58L176.905 207.376C175.968 207.393 175.096 207.192 174.285 206.769C173.476 206.349 173.06 205.537 173.04 204.333L172.013 145.555C171.989 144.151 172.325 143.292 173.021 142.979C173.719 142.665 174.635 142.499 175.772 142.479L175.749 141.175L161.908 141.416L162.559 142.319C163.427 142.304 163.62 142.791 164.396 143.179C165.172 143.567 165.635 144.261 165.788 145.261L166.269 172.845L127.551 173.521L127.069 145.937C127.185 144.932 127.624 144.223 128.387 143.808C129.148 143.393 128.395 143.277 129.265 143.261L130.813 141.959L116.971 142.201L116.993 143.505C118.13 143.485 119.052 143.619 119.76 143.908C120.467 144.196 120.833 145.043 120.858 146.447L121.884 205.227C121.905 206.431 121.518 207.257 120.723 207.705C119.928 208.155 119.062 208.387 118.126 208.403Z" stroke="#231F20" stroke-width="2.81667"/>
<path d="M322.771 673.863H325.167V664.307H337.421V673.863H339.817V652.629H337.421V662.063H325.167V652.629H322.771V673.863ZM353.801 674.227C358.533 674.227 362.021 670.466 362.021 666.036V665.976C362.021 661.547 358.564 657.847 353.861 657.847C349.129 657.847 345.672 661.608 345.672 666.036V666.097C345.672 670.526 349.1 674.227 353.801 674.227ZM353.861 672.133C350.556 672.133 348.068 669.403 348.068 666.036V665.976C348.068 662.669 350.404 659.909 353.801 659.909C357.108 659.909 359.625 662.669 359.625 666.036V666.097C359.625 669.403 357.259 672.133 353.861 672.133ZM367.451 673.863H369.787V664.914C369.787 662.032 371.668 659.969 374.155 659.969C376.643 659.969 378.189 661.699 378.189 664.642V673.863H380.495V664.823C380.495 661.73 382.467 659.969 384.832 659.969C387.38 659.969 388.897 661.668 388.897 664.702V673.863H391.232V664.156C391.232 660.273 389.019 657.847 385.408 657.847C382.679 657.847 381.011 659.241 379.888 660.971C379.039 659.211 377.4 657.847 374.852 657.847C372.213 657.847 370.819 659.272 369.787 660.819V658.18H367.451V673.863ZM398.907 666.976H411.343C411.373 666.612 411.373 666.369 411.373 666.157C411.373 661.547 408.704 657.847 404.063 657.847C399.725 657.847 396.54 661.487 396.54 666.036C396.54 670.92 400.059 674.227 404.367 674.227C407.339 674.227 409.251 673.043 410.828 671.284L409.372 669.98C408.097 671.315 406.581 672.193 404.427 672.193C401.667 672.193 399.24 670.283 398.907 666.976ZM398.907 665.096C399.24 662.063 401.303 659.817 404.003 659.817C407.096 659.817 408.735 662.244 409.008 665.096H398.907ZM421.869 674.166C424.993 674.166 427.451 672.436 427.451 669.464V669.403C427.451 666.583 424.841 665.642 422.415 664.914C420.321 664.278 418.38 663.7 418.38 662.215V662.154C418.38 660.849 419.564 659.879 421.413 659.879C422.931 659.879 424.599 660.455 426.055 661.395L427.116 659.636C425.508 658.575 423.385 657.907 421.475 657.907C418.38 657.907 416.136 659.696 416.136 662.396V662.457C416.136 665.339 418.865 666.188 421.323 666.885C423.385 667.461 425.236 668.068 425.236 669.645V669.707C425.236 671.223 423.871 672.193 421.991 672.193C420.14 672.193 418.259 671.466 416.56 670.192L415.377 671.86C417.136 673.285 419.624 674.166 421.869 674.166ZM450.381 674.227C453.324 674.227 455.204 672.952 456.781 671.193L455.295 669.797C454.052 671.132 452.504 672.133 450.503 672.133C447.227 672.133 444.739 669.433 444.739 666.036V665.976C444.739 662.608 447.165 659.909 450.351 659.909C452.475 659.909 453.869 660.971 455.113 662.275L456.66 660.637C455.204 659.089 453.353 657.847 450.381 657.847C445.801 657.847 442.343 661.608 442.343 666.036V666.097C442.343 670.495 445.801 674.227 450.381 674.227ZM461.847 673.863H464.183V667.614C464.183 662.881 466.973 660.424 470.401 660.424H470.583V657.907C467.611 657.785 465.336 659.667 464.183 662.275V658.18H461.847V673.863ZM479.259 674.196C482.019 674.196 483.808 672.921 484.9 671.527V673.863H487.205V664.278C487.205 662.275 486.66 660.759 485.568 659.667C484.445 658.544 482.716 657.937 480.503 657.937C478.197 657.937 476.528 658.483 474.8 659.272L475.497 661.183C476.953 660.516 478.409 660.06 480.26 660.06C483.201 660.06 484.9 661.516 484.9 664.307V664.792C483.505 664.399 482.109 664.126 480.108 664.126C476.135 664.126 473.404 665.884 473.404 669.252V669.312C473.404 672.528 476.316 674.196 479.259 674.196ZM479.713 672.315C477.591 672.315 475.771 671.163 475.771 669.191V669.131C475.771 667.249 477.439 665.976 480.351 665.976C482.261 665.976 483.779 666.309 484.931 666.643V668.099C484.931 670.587 482.595 672.315 479.713 672.315ZM494.243 673.863H496.579V660.243H501.523V658.24H496.548V656.967C496.548 654.721 497.459 653.629 499.279 653.629C500.067 653.629 500.704 653.781 501.553 654.024V651.992C500.795 651.719 500.067 651.597 498.975 651.597C497.549 651.597 496.397 652.023 495.608 652.811C494.728 653.691 494.243 655.056 494.243 656.845V658.211H492.089V660.243H494.243V673.863ZM510.956 674.135C512.079 674.135 512.959 673.892 513.777 673.468V671.466C512.959 671.86 512.291 672.012 511.503 672.012C509.925 672.012 508.864 671.315 508.864 669.403V660.243H513.839V658.18H508.864V653.448H506.528V658.18H504.344V660.243H506.528V669.707C506.528 672.892 508.439 674.135 510.956 674.135ZM520.117 666.976H532.553C532.584 666.612 532.584 666.369 532.584 666.157C532.584 661.547 529.915 657.847 525.273 657.847C520.936 657.847 517.751 661.487 517.751 666.036C517.751 670.92 521.269 674.227 525.577 674.227C528.549 674.227 530.46 673.043 532.037 671.284L530.581 669.98C529.308 671.315 527.791 672.193 525.637 672.193C522.877 672.193 520.451 670.283 520.117 666.976ZM520.117 665.096C520.451 662.063 522.513 659.817 525.213 659.817C528.307 659.817 529.945 662.244 530.217 665.096H520.117ZM544.475 674.196C547.356 674.196 549.207 672.588 550.48 670.708V673.863H552.816V651.719H550.48V661.183C549.267 659.424 547.387 657.847 544.475 657.847C540.713 657.847 536.983 660.88 536.983 666.005V666.067C536.983 671.223 540.713 674.196 544.475 674.196ZM544.899 672.103C541.927 672.103 539.379 669.737 539.379 666.036V665.976C539.379 662.184 541.865 659.939 544.899 659.939C547.811 659.939 550.572 662.366 550.572 665.976V666.036C550.572 669.645 547.811 672.103 544.899 672.103ZM570.439 673.863H572.775V660.243H577.719V658.24H572.744V656.967C572.744 654.721 573.655 653.629 575.475 653.629C576.263 653.629 576.9 653.781 577.749 654.024V651.992C576.991 651.719 576.263 651.597 575.171 651.597C573.745 651.597 572.592 652.023 571.804 652.811C570.924 653.691 570.439 655.056 570.439 656.845V658.211H568.285V660.243H570.439V673.863ZM588.76 674.227C593.492 674.227 596.98 670.466 596.98 666.036V665.976C596.98 661.547 593.523 657.847 588.821 657.847C584.089 657.847 580.631 661.608 580.631 666.036V666.097C580.631 670.526 584.059 674.227 588.76 674.227ZM588.821 672.133C585.515 672.133 583.027 669.403 583.027 666.036V665.976C583.027 662.669 585.363 659.909 588.76 659.909C592.067 659.909 594.584 662.669 594.584 666.036V666.097C594.584 669.403 592.219 672.133 588.821 672.133ZM602.411 673.863H604.745V667.614C604.745 662.881 607.536 660.424 610.964 660.424H611.147V657.907C608.173 657.785 605.899 659.667 604.745 662.275V658.18H602.411V673.863ZM626.433 673.863H628.769V651.719H626.433V673.863ZM640.083 674.196C642.844 674.196 644.633 672.921 645.725 671.527V673.863H648.031V664.278C648.031 662.275 647.484 660.759 646.392 659.667C645.271 658.544 643.541 657.937 641.327 657.937C639.021 657.937 637.353 658.483 635.624 659.272L636.321 661.183C637.777 660.516 639.233 660.06 641.084 660.06C644.027 660.06 645.725 661.516 645.725 664.307V664.792C644.329 664.399 642.935 664.126 640.932 664.126C636.959 664.126 634.229 665.884 634.229 669.252V669.312C634.229 672.528 637.141 674.196 640.083 674.196ZM640.539 672.315C638.415 672.315 636.595 671.163 636.595 669.191V669.131C636.595 667.249 638.263 665.976 641.175 665.976C643.087 665.976 644.603 666.309 645.756 666.643V668.099C645.756 670.587 643.42 672.315 640.539 672.315ZM659.375 674.166C662.499 674.166 664.956 672.436 664.956 669.464V669.403C664.956 666.583 662.348 665.642 659.921 664.914C657.828 664.278 655.887 663.7 655.887 662.215V662.154C655.887 660.849 657.069 659.879 658.92 659.879C660.436 659.879 662.105 660.455 663.561 661.395L664.623 659.636C663.015 658.575 660.892 657.907 658.98 657.907C655.887 657.907 653.641 659.696 653.641 662.396V662.457C653.641 665.339 656.372 666.188 658.829 666.885C660.892 667.461 662.741 668.068 662.741 669.645V669.707C662.741 671.223 661.377 672.193 659.496 672.193C657.645 672.193 655.765 671.466 654.067 670.192L652.884 671.86C654.643 673.285 657.131 674.166 659.375 674.166ZM675.452 674.135C676.573 674.135 677.453 673.892 678.272 673.468V671.466C677.453 671.86 676.785 672.012 675.997 672.012C674.42 672.012 673.359 671.315 673.359 669.403V660.243H678.333V658.18H673.359V653.448H671.023V658.18H668.839V660.243H671.023V669.707C671.023 672.892 672.933 674.135 675.452 674.135ZM683.732 654.752H686.401V652.173H683.732V654.752ZM683.884 673.863H686.22V658.18H683.884V673.863ZM692.863 673.863H695.197V664.884C695.197 661.942 697.2 659.969 699.899 659.969C702.66 659.969 704.237 661.79 704.237 664.702V673.863H706.572V664.126C706.572 660.395 704.359 657.847 700.567 657.847C697.867 657.847 696.229 659.211 695.197 660.909V658.18H692.863V673.863ZM719.707 678.776C722.195 678.776 724.287 678.079 725.683 676.683C726.956 675.409 727.684 673.559 727.684 671.132V658.18H725.349V661.002C724.075 659.303 722.164 657.847 719.221 657.847C715.491 657.847 711.851 660.667 711.851 665.248V665.308C711.851 669.828 715.46 672.649 719.221 672.649C722.103 672.649 724.015 671.163 725.379 669.343V671.193C725.379 674.863 723.135 676.775 719.676 676.775C717.432 676.775 715.429 676.076 713.64 674.772L712.579 676.592C714.672 678.048 717.099 678.776 719.707 678.776ZM719.676 670.587C716.764 670.587 714.247 668.403 714.247 665.248V665.187C714.247 661.972 716.704 659.909 719.676 659.909C722.649 659.909 725.44 662.002 725.44 665.217V665.278C725.44 668.432 722.649 670.587 719.676 670.587ZM744.428 673.863H746.764V664.914C746.764 662.032 748.644 659.969 751.132 659.969C753.619 659.969 755.165 661.699 755.165 664.642V673.863H757.471V664.823C757.471 661.73 759.443 659.969 761.809 659.969C764.357 659.969 765.873 661.668 765.873 664.702V673.863H768.209V664.156C768.209 660.273 765.995 657.847 762.385 657.847C759.655 657.847 757.987 659.241 756.864 660.971C756.015 659.211 754.377 657.847 751.829 657.847C749.191 657.847 747.795 659.272 746.764 660.819V658.18H744.428V673.863ZM775.883 666.976H788.32C788.351 666.612 788.351 666.369 788.351 666.157C788.351 661.547 785.681 657.847 781.04 657.847C776.703 657.847 773.517 661.487 773.517 666.036C773.517 670.92 777.036 674.227 781.343 674.227C784.316 674.227 786.227 673.043 787.804 671.284L786.348 669.98C785.075 671.315 783.557 672.193 781.404 672.193C778.644 672.193 776.217 670.283 775.883 666.976ZM775.883 665.096C776.217 662.063 778.28 659.817 780.979 659.817C784.073 659.817 785.711 662.244 785.984 665.096H775.883ZM793.659 673.863H795.993V664.914C795.993 662.032 797.875 659.969 800.361 659.969C802.849 659.969 804.396 661.699 804.396 664.642V673.863H806.701V664.823C806.701 661.73 808.673 659.969 811.039 659.969C813.587 659.969 815.104 661.668 815.104 664.702V673.863H817.44V664.156C817.44 660.273 815.225 657.847 811.616 657.847C808.885 657.847 807.217 659.241 806.095 660.971C805.245 659.211 803.608 657.847 801.06 657.847C798.42 657.847 797.025 659.272 795.993 660.819V658.18H793.659V673.863ZM830.877 674.227C835.609 674.227 839.097 670.466 839.097 666.036V665.976C839.097 661.547 835.64 657.847 830.937 657.847C826.205 657.847 822.748 661.608 822.748 666.036V666.097C822.748 670.526 826.176 674.227 830.877 674.227ZM830.937 672.133C827.631 672.133 825.144 669.403 825.144 666.036V665.976C825.144 662.669 827.48 659.909 830.877 659.909C834.183 659.909 836.701 662.669 836.701 666.036V666.097C836.701 669.403 834.335 672.133 830.937 672.133ZM844.527 673.863H846.863V667.614C846.863 662.881 849.653 660.424 853.081 660.424H853.263V657.907C850.291 657.785 848.015 659.667 846.863 662.275V658.18H844.527V673.863ZM858.085 654.752H860.755V652.173H858.085V654.752ZM858.237 673.863H860.573V658.18H858.237V673.863ZM868.611 666.976H881.048C881.079 666.612 881.079 666.369 881.079 666.157C881.079 661.547 878.408 657.847 873.768 657.847C869.429 657.847 866.245 661.487 866.245 666.036C866.245 670.92 869.764 674.227 874.071 674.227C877.044 674.227 878.955 673.043 880.532 671.284L879.076 669.98C877.801 671.315 876.285 672.193 874.132 672.193C871.371 672.193 868.944 670.283 868.611 666.976ZM868.611 665.096C868.944 662.063 871.008 659.817 873.707 659.817C876.801 659.817 878.439 662.244 878.712 665.096H868.611ZM891.573 674.166C894.697 674.166 897.155 672.436 897.155 669.464V669.403C897.155 666.583 894.545 665.642 892.119 664.914C890.027 664.278 888.085 663.7 888.085 662.215V662.154C888.085 660.849 889.268 659.879 891.119 659.879C892.635 659.879 894.303 660.455 895.759 661.395L896.821 659.636C895.213 658.575 893.089 657.907 891.179 657.907C888.085 657.907 885.84 659.696 885.84 662.396V662.457C885.84 665.339 888.571 666.188 891.027 666.885C893.089 667.461 894.94 668.068 894.94 669.645V669.707C894.94 671.223 893.575 672.193 891.695 672.193C889.844 672.193 887.964 671.466 886.265 670.192L885.081 671.86C886.841 673.285 889.328 674.166 891.573 674.166ZM902.432 673.863H905.223V670.678H902.432V673.863Z" fill="#231F20"/>
</svg>
