<svg viewBox="0 0 890 386" fill="none" xmlns="http://www.w3.org/2000/svg">
<path d="M884.317 159.305L802.674 5.55619H772.034L860.95 171.372V299.939H889.186V169.932L884.317 159.305ZM704.15 140.732C734.79 132.921 757.62 108.891 757.62 76.4482C757.62 24.1802 710.76 5.55619 665.7 5.55619H590.602V299.939H686.126C736.593 299.939 787.058 276.509 787.058 219.435C787.058 170.171 749.81 144.937 704.15 140.732ZM661.494 140.131H618.238V10.3615H662.696C703.549 10.3615 727.581 36.1962 727.581 76.4482C727.581 117.302 701.748 140.131 661.494 140.131ZM754.616 219.435C754.616 265.695 727.581 295.133 680.72 295.133H618.238V144.937H678.317C725.178 144.937 754.616 171.973 754.616 219.435ZM551.558 199.608V5.55619H547.353V199.008C547.353 254.88 522.721 292.729 463.244 292.729C406.77 292.729 380.937 247.671 380.937 196.004V5.55619H352.7V198.407C352.7 265.695 389.948 302.943 457.236 302.943C523.922 302.943 551.558 262.691 551.558 199.608ZM319.06 95.0722C319.06 30.1882 261.384 5.55619 204.91 5.55619H125.606V299.339L154.445 299.939L153.844 183.988H197.101C304.04 183.988 291.424 382.247 422.394 382.247C460.845 382.247 489.081 374.436 521.524 354.009L518.52 349.204C495.089 364.223 472.26 369.629 444.624 369.629C331.076 369.629 305.241 206.818 222.333 183.388C271.598 180.984 319.06 148.542 319.06 95.0722ZM288.42 95.0722C288.42 146.74 254.174 179.783 203.108 179.783H153.844V10.9628H203.108C255.377 10.9628 288.42 42.2029 288.42 95.0722Z" fill="#000"/>
<path d="M52.121 73.3546C71.0437 66.8386 81.101 46.2173 74.585 27.2947C68.0704 8.37201 47.4477 -1.68532 28.525 4.83068C9.60316 11.3453 -0.454569 31.968 6.06103 50.8906C12.5761 69.812 33.1984 79.8706 52.121 73.3546Z" stroke="#231F20" stroke-width="3.25"/>
<path d="M11.875 72.4027L11.8964 73.6067L26.4408 73.352L26.4438 72.7133L25.0152 72.1734C24.1454 72.188 23.4053 71.9 22.7928 71.3094C22.1802 70.7174 21.8673 70.02 21.8532 69.2187L21.3245 38.9254L60.0424 38.2507L60.5717 68.5427C60.5851 69.3454 60.2971 70.052 59.7051 70.664C59.1144 71.2774 58.3824 71.5907 57.5144 71.6054L56.1104 71.6307L55.1597 73.2254L70.6757 72.58L70.6544 71.376C69.717 71.3934 68.845 71.1921 68.0344 70.7694C67.225 70.3494 66.8091 69.5374 66.7891 68.3334L65.7624 9.55468C65.7384 8.15068 66.0744 7.29203 66.7704 6.9787C67.4677 6.66537 68.3837 6.4987 69.521 6.4787L69.4984 5.17466L55.6571 5.416L56.3077 6.31867C57.1757 6.30401 57.369 6.7907 58.145 7.1787C58.921 7.5667 59.3837 8.26138 59.537 9.26138L60.0184 36.8454L21.3001 37.5213L20.8184 9.93736C20.9345 8.93202 21.3736 8.22266 22.136 7.808C22.8969 7.39333 22.1444 7.27738 23.0141 7.26138L24.5621 5.95871L10.7198 6.20135L10.7422 7.50539C11.8788 7.48539 12.8012 7.61866 13.5089 7.908C14.2162 8.196 14.5824 9.04267 14.6069 10.4467L15.6329 69.2267C15.6537 70.4307 15.2668 71.2574 14.472 71.7054C13.6772 72.1547 12.811 72.3867 11.875 72.4027Z" fill="#231F20"/>
<path d="M11.875 72.4027L11.8964 73.6067L26.4408 73.352L26.4438 72.7133L25.0152 72.1734C24.1454 72.188 23.4053 71.9 22.7928 71.3094C22.1802 70.7174 21.8673 70.02 21.8532 69.2187L21.3245 38.9254L60.0424 38.2507L60.5717 68.5427C60.5851 69.3454 60.2971 70.052 59.7051 70.664C59.1144 71.2774 58.3824 71.5907 57.5144 71.6054L56.1104 71.6307L55.1597 73.2254L70.6757 72.58L70.6544 71.376C69.717 71.3934 68.845 71.1921 68.0344 70.7694C67.225 70.3494 66.8091 69.5374 66.7891 68.3334L65.7624 9.55468C65.7384 8.15068 66.0744 7.29203 66.7704 6.9787C67.4677 6.66537 68.3837 6.4987 69.521 6.4787L69.4984 5.17466L55.6571 5.416L56.3077 6.31867C57.1757 6.30401 57.369 6.7907 58.145 7.1787C58.921 7.5667 59.3837 8.26138 59.537 9.26138L60.0184 36.8454L21.3001 37.5213L20.8184 9.93736C20.9345 8.93202 21.3736 8.22266 22.136 7.808C22.8969 7.39333 22.1444 7.27738 23.0141 7.26138L24.5621 5.95871L10.7198 6.20135L10.7422 7.50539C11.8788 7.48539 12.8012 7.61866 13.5089 7.908C14.2162 8.196 14.5824 9.04267 14.6069 10.4467L15.6329 69.2267C15.6537 70.4307 15.2668 71.2574 14.472 71.7054C13.6772 72.1547 12.811 72.3867 11.875 72.4027Z" stroke="#231F20" stroke-width="2.81667"/>
</svg>
