<svg viewBox="0 0 887 543" fill="none" xmlns="http://www.w3.org/2000/svg">
<g clip-path="url(#clip0_2159_110)">
<path d="M882.568 159.305L800.925 5.55619H770.285L859.201 171.372V299.939H887.437V169.932L882.568 159.305ZM702.401 140.732C733.041 132.921 755.871 108.891 755.871 76.4482C755.871 24.1802 709.011 5.55619 663.951 5.55619H588.853V299.939H684.377C734.844 299.939 785.309 276.509 785.309 219.435C785.309 170.171 748.061 144.937 702.401 140.732ZM659.745 140.131H616.489V10.3615H660.947C701.8 10.3615 725.832 36.1962 725.832 76.4482C725.832 117.302 699.999 140.131 659.745 140.131ZM752.867 219.435C752.867 265.695 725.832 295.133 678.971 295.133H616.489V144.937H676.568C723.429 144.937 752.867 171.973 752.867 219.435ZM549.809 199.608V5.55619H545.604V199.008C545.604 254.88 520.972 292.729 461.495 292.729C405.021 292.729 379.188 247.671 379.188 196.004V5.55619H350.951V198.407C350.951 265.695 388.199 302.943 455.487 302.943C522.173 302.943 549.809 262.691 549.809 199.608ZM317.311 95.0722C317.311 30.1882 259.635 5.55619 203.161 5.55619H123.857V299.339L152.696 299.939L152.095 183.988H195.352C302.291 183.988 289.675 382.247 420.645 382.247C459.096 382.247 487.332 374.436 519.775 354.009L516.771 349.204C493.34 364.223 470.511 369.629 442.875 369.629C329.327 369.629 303.492 206.818 220.584 183.388C269.849 180.984 317.311 148.542 317.311 95.0722ZM286.671 95.0722C286.671 146.74 252.425 179.783 201.359 179.783H152.095V10.9628H201.359C253.628 10.9628 286.671 42.2029 286.671 95.0722Z" fill="#231F20"/>
<path d="M50.372 73.3546C69.2947 66.8386 79.352 46.2173 72.836 27.2947C66.3213 8.37201 45.6987 -1.68532 26.776 4.83068C7.85414 11.3453 -2.20359 31.968 4.31201 50.8906C10.8271 69.812 31.4493 79.8706 50.372 73.3546Z" stroke="#231F20" stroke-width="3.25"/>
<path d="M10.1259 72.4027L10.1472 73.6067L24.6916 73.352L24.6947 72.7133L23.266 72.1734C22.3963 72.188 21.6562 71.9 21.0436 71.3094C20.4311 70.7174 20.1182 70.02 20.104 69.2187L19.5754 38.9254L58.2932 38.2507L58.8226 68.5427C58.8359 69.3454 58.5479 70.052 57.9559 70.664C57.3652 71.2774 56.6332 71.5907 55.7652 71.6054L54.3612 71.6307L53.4106 73.2254L68.9266 72.58L68.9052 71.376C67.9679 71.3934 67.0959 71.1921 66.2852 70.7694C65.4759 70.3494 65.0599 69.5374 65.0399 68.3334L64.0132 9.55468C63.9892 8.15068 64.3252 7.29203 65.0212 6.9787C65.7186 6.66537 66.6346 6.4987 67.7719 6.4787L67.7492 5.17466L53.9079 5.416L54.5586 6.31867C55.4266 6.30401 55.6199 6.7907 56.3959 7.1787C57.1719 7.5667 57.6346 8.26138 57.7879 9.26138L58.2692 36.8454L19.551 37.5213L19.0692 9.93736C19.1854 8.93202 19.6244 8.22266 20.3868 7.808C21.1478 7.39333 20.3952 7.27738 21.265 7.26138L22.813 5.95871L8.9707 6.20135L8.9931 7.50539C10.1296 7.48539 11.052 7.61866 11.7598 7.908C12.4671 8.196 12.8332 9.04267 12.8578 10.4467L13.8838 69.2267C13.9046 70.4307 13.5176 71.2574 12.7228 71.7054C11.928 72.1547 11.0619 72.3867 10.1259 72.4027Z" fill="#231F20"/>
<path d="M10.1259 72.4027L10.1472 73.6067L24.6916 73.352L24.6947 72.7133L23.266 72.1734C22.3963 72.188 21.6562 71.9 21.0436 71.3094C20.4311 70.7174 20.1182 70.02 20.104 69.2187L19.5754 38.9254L58.2932 38.2507L58.8226 68.5427C58.8359 69.3454 58.5479 70.052 57.9559 70.664C57.3652 71.2774 56.6332 71.5907 55.7652 71.6054L54.3612 71.6307L53.4106 73.2254L68.9266 72.58L68.9052 71.376C67.9679 71.3934 67.0959 71.1921 66.2852 70.7694C65.4759 70.3494 65.0599 69.5374 65.0399 68.3334L64.0132 9.55468C63.9892 8.15068 64.3252 7.29203 65.0212 6.9787C65.7186 6.66537 66.6346 6.4987 67.7719 6.4787L67.7492 5.17466L53.9079 5.416L54.5586 6.31867C55.4266 6.30401 55.6199 6.7907 56.3959 7.1787C57.1719 7.5667 57.6346 8.26138 57.7879 9.26138L58.2692 36.8454L19.551 37.5213L19.0692 9.93736C19.1854 8.93202 19.6244 8.22266 20.3868 7.808C21.1478 7.39333 20.3952 7.27738 21.265 7.26138L22.813 5.95871L8.9707 6.20135L8.9931 7.50539C10.1296 7.48539 11.052 7.61866 11.7598 7.908C12.4671 8.196 12.8332 9.04267 12.8578 10.4467L13.8838 69.2267C13.9046 70.4307 13.5176 71.2574 12.7228 71.7054C11.928 72.1547 11.0619 72.3867 10.1259 72.4027Z" stroke="#231F20" stroke-width="2.81667"/>
<path d="M214.771 537.863H217.167V528.307H229.421V537.863H231.817V516.629H229.421V526.063H217.167V516.629H214.771V537.863ZM245.801 538.227C250.533 538.227 254.021 534.466 254.021 530.036V529.976C254.021 525.547 250.564 521.847 245.861 521.847C241.129 521.847 237.672 525.608 237.672 530.036V530.097C237.672 534.526 241.1 538.227 245.801 538.227ZM245.861 536.133C242.556 536.133 240.068 533.403 240.068 530.036V529.976C240.068 526.669 242.404 523.909 245.801 523.909C249.108 523.909 251.625 526.669 251.625 530.036V530.097C251.625 533.403 249.259 536.133 245.861 536.133ZM259.451 537.863H261.787V528.914C261.787 526.032 263.668 523.969 266.155 523.969C268.643 523.969 270.189 525.699 270.189 528.642V537.863H272.495V528.823C272.495 525.73 274.467 523.969 276.832 523.969C279.38 523.969 280.897 525.668 280.897 528.702V537.863H283.232V528.156C283.232 524.273 281.019 521.847 277.408 521.847C274.679 521.847 273.011 523.241 271.888 524.971C271.039 523.211 269.4 521.847 266.852 521.847C264.213 521.847 262.819 523.272 261.787 524.819V522.18H259.451V537.863ZM290.907 530.976H303.343C303.373 530.612 303.373 530.369 303.373 530.157C303.373 525.547 300.704 521.847 296.063 521.847C291.725 521.847 288.54 525.487 288.54 530.036C288.54 534.92 292.059 538.227 296.367 538.227C299.339 538.227 301.251 537.043 302.828 535.284L301.372 533.98C300.097 535.315 298.581 536.193 296.427 536.193C293.667 536.193 291.24 534.283 290.907 530.976ZM290.907 529.096C291.24 526.063 293.303 523.817 296.003 523.817C299.096 523.817 300.735 526.244 301.008 529.096H290.907ZM313.869 538.166C316.993 538.166 319.451 536.436 319.451 533.464V533.403C319.451 530.583 316.841 529.642 314.415 528.914C312.321 528.278 310.38 527.7 310.38 526.215V526.154C310.38 524.849 311.564 523.879 313.413 523.879C314.931 523.879 316.599 524.455 318.055 525.395L319.116 523.636C317.508 522.575 315.385 521.907 313.475 521.907C310.38 521.907 308.136 523.696 308.136 526.396V526.457C308.136 529.339 310.865 530.188 313.323 530.885C315.385 531.461 317.236 532.068 317.236 533.645V533.707C317.236 535.223 315.871 536.193 313.991 536.193C312.14 536.193 310.259 535.466 308.56 534.192L307.377 535.86C309.136 537.285 311.624 538.166 313.869 538.166ZM342.381 538.227C345.324 538.227 347.204 536.952 348.781 535.193L347.295 533.797C346.052 535.132 344.504 536.133 342.503 536.133C339.227 536.133 336.739 533.433 336.739 530.036V529.976C336.739 526.608 339.165 523.909 342.351 523.909C344.475 523.909 345.869 524.971 347.113 526.275L348.66 524.637C347.204 523.089 345.353 521.847 342.381 521.847C337.801 521.847 334.343 525.608 334.343 530.036V530.097C334.343 534.495 337.801 538.227 342.381 538.227ZM353.847 537.863H356.183V531.614C356.183 526.881 358.973 524.424 362.401 524.424H362.583V521.907C359.611 521.785 357.336 523.667 356.183 526.275V522.18H353.847V537.863ZM371.259 538.196C374.019 538.196 375.808 536.921 376.9 535.527V537.863H379.205V528.278C379.205 526.275 378.66 524.759 377.568 523.667C376.445 522.544 374.716 521.937 372.503 521.937C370.197 521.937 368.528 522.483 366.8 523.272L367.497 525.183C368.953 524.516 370.409 524.06 372.26 524.06C375.201 524.06 376.9 525.516 376.9 528.307V528.792C375.505 528.399 374.109 528.126 372.108 528.126C368.135 528.126 365.404 529.884 365.404 533.252V533.312C365.404 536.528 368.316 538.196 371.259 538.196ZM371.713 536.315C369.591 536.315 367.771 535.163 367.771 533.191V533.131C367.771 531.249 369.439 529.976 372.351 529.976C374.261 529.976 375.779 530.309 376.931 530.643V532.099C376.931 534.587 374.595 536.315 371.713 536.315ZM386.243 537.863H388.579V524.243H393.523V522.24H388.548V520.967C388.548 518.721 389.459 517.629 391.279 517.629C392.067 517.629 392.704 517.781 393.553 518.024V515.992C392.795 515.719 392.067 515.597 390.975 515.597C389.549 515.597 388.397 516.023 387.608 516.811C386.728 517.691 386.243 519.056 386.243 520.845V522.211H384.089V524.243H386.243V537.863ZM402.956 538.135C404.079 538.135 404.959 537.892 405.777 537.468V535.466C404.959 535.86 404.291 536.012 403.503 536.012C401.925 536.012 400.864 535.315 400.864 533.403V524.243H405.839V522.18H400.864V517.448H398.528V522.18H396.344V524.243H398.528V533.707C398.528 536.892 400.439 538.135 402.956 538.135ZM412.117 530.976H424.553C424.584 530.612 424.584 530.369 424.584 530.157C424.584 525.547 421.915 521.847 417.273 521.847C412.936 521.847 409.751 525.487 409.751 530.036C409.751 534.92 413.269 538.227 417.577 538.227C420.549 538.227 422.46 537.043 424.037 535.284L422.581 533.98C421.308 535.315 419.791 536.193 417.637 536.193C414.877 536.193 412.451 534.283 412.117 530.976ZM412.117 529.096C412.451 526.063 414.513 523.817 417.213 523.817C420.307 523.817 421.945 526.244 422.217 529.096H412.117ZM436.475 538.196C439.356 538.196 441.207 536.588 442.48 534.708V537.863H444.816V515.719H442.48V525.183C441.267 523.424 439.387 521.847 436.475 521.847C432.713 521.847 428.983 524.88 428.983 530.005V530.067C428.983 535.223 432.713 538.196 436.475 538.196ZM436.899 536.103C433.927 536.103 431.379 533.737 431.379 530.036V529.976C431.379 526.184 433.865 523.939 436.899 523.939C439.811 523.939 442.572 526.366 442.572 529.976V530.036C442.572 533.645 439.811 536.103 436.899 536.103ZM462.439 537.863H464.775V524.243H469.719V522.24H464.744V520.967C464.744 518.721 465.655 517.629 467.475 517.629C468.263 517.629 468.9 517.781 469.749 518.024V515.992C468.991 515.719 468.263 515.597 467.171 515.597C465.745 515.597 464.592 516.023 463.804 516.811C462.924 517.691 462.439 519.056 462.439 520.845V522.211H460.285V524.243H462.439V537.863ZM480.76 538.227C485.492 538.227 488.98 534.466 488.98 530.036V529.976C488.98 525.547 485.523 521.847 480.821 521.847C476.089 521.847 472.631 525.608 472.631 530.036V530.097C472.631 534.526 476.059 538.227 480.76 538.227ZM480.821 536.133C477.515 536.133 475.027 533.403 475.027 530.036V529.976C475.027 526.669 477.363 523.909 480.76 523.909C484.067 523.909 486.584 526.669 486.584 530.036V530.097C486.584 533.403 484.219 536.133 480.821 536.133ZM494.411 537.863H496.745V531.614C496.745 526.881 499.536 524.424 502.964 524.424H503.147V521.907C500.173 521.785 497.899 523.667 496.745 526.275V522.18H494.411V537.863ZM518.433 537.863H520.769V515.719H518.433V537.863ZM532.083 538.196C534.844 538.196 536.633 536.921 537.725 535.527V537.863H540.031V528.278C540.031 526.275 539.484 524.759 538.392 523.667C537.271 522.544 535.541 521.937 533.327 521.937C531.021 521.937 529.353 522.483 527.624 523.272L528.321 525.183C529.777 524.516 531.233 524.06 533.084 524.06C536.027 524.06 537.725 525.516 537.725 528.307V528.792C536.329 528.399 534.935 528.126 532.932 528.126C528.959 528.126 526.229 529.884 526.229 533.252V533.312C526.229 536.528 529.141 538.196 532.083 538.196ZM532.539 536.315C530.415 536.315 528.595 535.163 528.595 533.191V533.131C528.595 531.249 530.263 529.976 533.175 529.976C535.087 529.976 536.603 530.309 537.756 530.643V532.099C537.756 534.587 535.42 536.315 532.539 536.315ZM551.375 538.166C554.499 538.166 556.956 536.436 556.956 533.464V533.403C556.956 530.583 554.348 529.642 551.921 528.914C549.828 528.278 547.887 527.7 547.887 526.215V526.154C547.887 524.849 549.069 523.879 550.92 523.879C552.436 523.879 554.105 524.455 555.561 525.395L556.623 523.636C555.015 522.575 552.892 521.907 550.98 521.907C547.887 521.907 545.641 523.696 545.641 526.396V526.457C545.641 529.339 548.372 530.188 550.829 530.885C552.892 531.461 554.741 532.068 554.741 533.645V533.707C554.741 535.223 553.377 536.193 551.496 536.193C549.645 536.193 547.765 535.466 546.067 534.192L544.884 535.86C546.643 537.285 549.131 538.166 551.375 538.166ZM567.452 538.135C568.573 538.135 569.453 537.892 570.272 537.468V535.466C569.453 535.86 568.785 536.012 567.997 536.012C566.42 536.012 565.359 535.315 565.359 533.403V524.243H570.333V522.18H565.359V517.448H563.023V522.18H560.839V524.243H563.023V533.707C563.023 536.892 564.933 538.135 567.452 538.135ZM575.732 518.752H578.401V516.173H575.732V518.752ZM575.884 537.863H578.22V522.18H575.884V537.863ZM584.863 537.863H587.197V528.884C587.197 525.942 589.2 523.969 591.899 523.969C594.66 523.969 596.237 525.79 596.237 528.702V537.863H598.572V528.126C598.572 524.395 596.359 521.847 592.567 521.847C589.867 521.847 588.229 523.211 587.197 524.909V522.18H584.863V537.863ZM611.707 542.776C614.195 542.776 616.287 542.079 617.683 540.683C618.956 539.409 619.684 537.559 619.684 535.132V522.18H617.349V525.002C616.075 523.303 614.164 521.847 611.221 521.847C607.491 521.847 603.851 524.667 603.851 529.248V529.308C603.851 533.828 607.46 536.649 611.221 536.649C614.103 536.649 616.015 535.163 617.379 533.343V535.193C617.379 538.863 615.135 540.775 611.676 540.775C609.432 540.775 607.429 540.076 605.64 538.772L604.579 540.592C606.672 542.048 609.099 542.776 611.707 542.776ZM611.676 534.587C608.764 534.587 606.247 532.403 606.247 529.248V529.187C606.247 525.972 608.704 523.909 611.676 523.909C614.649 523.909 617.44 526.002 617.44 529.217V529.278C617.44 532.432 614.649 534.587 611.676 534.587ZM636.428 537.863H638.764V528.914C638.764 526.032 640.644 523.969 643.132 523.969C645.619 523.969 647.165 525.699 647.165 528.642V537.863H649.471V528.823C649.471 525.73 651.443 523.969 653.809 523.969C656.357 523.969 657.873 525.668 657.873 528.702V537.863H660.209V528.156C660.209 524.273 657.995 521.847 654.385 521.847C651.655 521.847 649.987 523.241 648.864 524.971C648.015 523.211 646.377 521.847 643.829 521.847C641.191 521.847 639.795 523.272 638.764 524.819V522.18H636.428V537.863ZM667.883 530.976H680.32C680.351 530.612 680.351 530.369 680.351 530.157C680.351 525.547 677.681 521.847 673.04 521.847C668.703 521.847 665.517 525.487 665.517 530.036C665.517 534.92 669.036 538.227 673.343 538.227C676.316 538.227 678.227 537.043 679.804 535.284L678.348 533.98C677.075 535.315 675.557 536.193 673.404 536.193C670.644 536.193 668.217 534.283 667.883 530.976ZM667.883 529.096C668.217 526.063 670.28 523.817 672.979 523.817C676.073 523.817 677.711 526.244 677.984 529.096H667.883ZM685.659 537.863H687.993V528.914C687.993 526.032 689.875 523.969 692.361 523.969C694.849 523.969 696.396 525.699 696.396 528.642V537.863H698.701V528.823C698.701 525.73 700.673 523.969 703.039 523.969C705.587 523.969 707.104 525.668 707.104 528.702V537.863H709.44V528.156C709.44 524.273 707.225 521.847 703.616 521.847C700.885 521.847 699.217 523.241 698.095 524.971C697.245 523.211 695.608 521.847 693.06 521.847C690.42 521.847 689.025 523.272 687.993 524.819V522.18H685.659V537.863ZM722.877 538.227C727.609 538.227 731.097 534.466 731.097 530.036V529.976C731.097 525.547 727.64 521.847 722.937 521.847C718.205 521.847 714.748 525.608 714.748 530.036V530.097C714.748 534.526 718.176 538.227 722.877 538.227ZM722.937 536.133C719.631 536.133 717.144 533.403 717.144 530.036V529.976C717.144 526.669 719.48 523.909 722.877 523.909C726.183 523.909 728.701 526.669 728.701 530.036V530.097C728.701 533.403 726.335 536.133 722.937 536.133ZM736.527 537.863H738.863V531.614C738.863 526.881 741.653 524.424 745.081 524.424H745.263V521.907C742.291 521.785 740.015 523.667 738.863 526.275V522.18H736.527V537.863ZM750.085 518.752H752.755V516.173H750.085V518.752ZM750.237 537.863H752.573V522.18H750.237V537.863ZM760.611 530.976H773.048C773.079 530.612 773.079 530.369 773.079 530.157C773.079 525.547 770.408 521.847 765.768 521.847C761.429 521.847 758.245 525.487 758.245 530.036C758.245 534.92 761.764 538.227 766.071 538.227C769.044 538.227 770.955 537.043 772.532 535.284L771.076 533.98C769.801 535.315 768.285 536.193 766.132 536.193C763.371 536.193 760.944 534.283 760.611 530.976ZM760.611 529.096C760.944 526.063 763.008 523.817 765.707 523.817C768.801 523.817 770.439 526.244 770.712 529.096H760.611ZM783.573 538.166C786.697 538.166 789.155 536.436 789.155 533.464V533.403C789.155 530.583 786.545 529.642 784.119 528.914C782.027 528.278 780.085 527.7 780.085 526.215V526.154C780.085 524.849 781.268 523.879 783.119 523.879C784.635 523.879 786.303 524.455 787.759 525.395L788.821 523.636C787.213 522.575 785.089 521.907 783.179 521.907C780.085 521.907 777.84 523.696 777.84 526.396V526.457C777.84 529.339 780.571 530.188 783.027 530.885C785.089 531.461 786.94 532.068 786.94 533.645V533.707C786.94 535.223 785.575 536.193 783.695 536.193C781.844 536.193 779.964 535.466 778.265 534.192L777.081 535.86C778.841 537.285 781.328 538.166 783.573 538.166ZM794.432 537.863H797.223V534.678H794.432V537.863Z" fill="#231F20"/>
</g>
<defs>
<clipPath id="clip0_2159_110">
<rect width="887" height="543" fill="white"/>
</clipPath>
</defs>
</svg>
